STARTFONT 2.1
FONT -Misc-Ohsnap-Medium-R-Normal--15-108-100-100-C-80-ISO8859-1
SIZE 15 100 100
FONTBOUNDINGBOX 8 15 0 -3
STARTPROPERTIES 24
FONTNAME_REGISTRY ""
FOUNDRY "Misc"
FAMILY_NAME "Ohsnap"
WEIGHT_NAME "Medium"
SLANT "R"
SETWIDTH_NAME "Normal"
ADD_STYLE_NAME ""
PIXEL_SIZE 15
POINT_SIZE 108
RESOLUTION_X 100
RESOLUTION_Y 100
SPACING "C"
AVERAGE_WIDTH 80
CHARSET_REGISTRY "ISO8859"
CHARSET_ENCODING "1"
COPYRIGHT "GPLv2"
CAP_HEIGHT 8
X_HEIGHT 6
WEIGHT 10
QUAD_WIDTH 8
DEFAULT_CHAR 0
FONT_DESCENT 3
FONT_ASCENT 12
_GBDFED_INFO "Edited with gbdfed 1.6."
ENDPROPERTIES
CHARS 223
STARTCHAR U+0000
ENCODING 0
SWIDTH 384 0
DWIDTH 8 0
BBX 8 15 0 -3
BITMAP
00
00
00
00
7E
42
42
42
42
42
42
7E
00
00
00
ENDCHAR
STARTCHAR U+0001
ENCODING 1
SWIDTH 384 0
DWIDTH 8 0
BBX 8 15 0 -3
BITMAP
00
00
00
00
00
00
00
00
00
00
00
00
00
00
00
ENDCHAR
STARTCHAR U+0002
ENCODING 2
SWIDTH 384 0
DWIDTH 8 0
BBX 8 15 0 -3
BITMAP
55
AA
55
AA
55
AA
55
AA
55
AA
55
AA
55
AA
55
ENDCHAR
STARTCHAR U+0003
ENCODING 3
SWIDTH 384 0
DWIDTH 8 0
BBX 8 15 0 -3
BITMAP
00
00
00
00
00
00
00
00
00
00
00
00
00
00
00
ENDCHAR
STARTCHAR U+0004
ENCODING 4
SWIDTH 384 0
DWIDTH 8 0
BBX 8 15 0 -3
BITMAP
00
00
00
00
00
00
00
00
00
00
00
00
00
00
00
ENDCHAR
STARTCHAR U+0005
ENCODING 5
SWIDTH 384 0
DWIDTH 8 0
BBX 8 15 0 -3
BITMAP
00
00
00
00
00
00
00
00
00
00
00
00
00
00
00
ENDCHAR
STARTCHAR U+0006
ENCODING 6
SWIDTH 384 0
DWIDTH 8 0
BBX 8 15 0 -3
BITMAP
00
00
00
00
00
00
00
00
00
00
00
00
00
00
00
ENDCHAR
STARTCHAR U+0007
ENCODING 7
SWIDTH 384 0
DWIDTH 8 0
BBX 8 15 0 -3
BITMAP
00
00
00
00
00
00
00
00
00
00
00
00
00
00
00
ENDCHAR
STARTCHAR U+0008
ENCODING 8
SWIDTH 384 0
DWIDTH 8 0
BBX 8 15 0 -3
BITMAP
00
00
00
00
00
00
00
00
00
00
00
00
00
00
00
ENDCHAR
STARTCHAR U+0009
ENCODING 9
SWIDTH 384 0
DWIDTH 8 0
BBX 8 15 0 -3
BITMAP
00
00
00
00
00
00
00
00
00
00
00
00
00
00
00
ENDCHAR
STARTCHAR U+000A
ENCODING 10
SWIDTH 384 0
DWIDTH 8 0
BBX 8 15 0 -3
BITMAP
00
00
00
00
00
00
00
00
00
00
00
00
00
00
00
ENDCHAR
STARTCHAR U+000B
ENCODING 11
SWIDTH 384 0
DWIDTH 8 0
BBX 8 15 0 -3
BITMAP
08
08
08
08
08
08
08
08
F8
00
00
00
00
00
00
ENDCHAR
STARTCHAR U+000C
ENCODING 12
SWIDTH 384 0
DWIDTH 8 0
BBX 8 15 0 -3
BITMAP
00
00
00
00
00
00
00
00
F8
08
08
08
08
08
08
ENDCHAR
STARTCHAR U+000D
ENCODING 13
SWIDTH 384 0
DWIDTH 8 0
BBX 8 15 0 -3
BITMAP
00
00
00
00
00
00
00
00
0F
08
08
08
08
08
08
ENDCHAR
STARTCHAR U+000E
ENCODING 14
SWIDTH 384 0
DWIDTH 8 0
BBX 8 15 0 -3
BITMAP
08
08
08
08
08
08
08
08
0F
00
00
00
00
00
00
ENDCHAR
STARTCHAR U+000F
ENCODING 15
SWIDTH 384 0
DWIDTH 8 0
BBX 8 15 0 -3
BITMAP
08
08
08
08
08
08
08
08
FF
08
08
08
08
08
08
ENDCHAR
STARTCHAR U+0010
ENCODING 16
SWIDTH 384 0
DWIDTH 8 0
BBX 8 15 0 -3
BITMAP
00
00
00
00
00
00
00
00
00
00
00
00
00
00
00
ENDCHAR
STARTCHAR U+0011
ENCODING 17
SWIDTH 384 0
DWIDTH 8 0
BBX 8 15 0 -3
BITMAP
00
00
00
00
00
00
00
00
00
00
00
00
00
00
00
ENDCHAR
STARTCHAR U+0012
ENCODING 18
SWIDTH 384 0
DWIDTH 8 0
BBX 8 15 0 -3
BITMAP
00
00
00
00
00
00
00
00
FF
00
00
00
00
00
00
ENDCHAR
STARTCHAR U+0013
ENCODING 19
SWIDTH 384 0
DWIDTH 8 0
BBX 8 15 0 -3
BITMAP
00
00
00
00
00
00
00
00
00
00
00
00
00
00
00
ENDCHAR
STARTCHAR U+0014
ENCODING 20
SWIDTH 384 0
DWIDTH 8 0
BBX 8 15 0 -3
BITMAP
00
00
00
00
00
00
00
00
00
00
00
00
00
00
00
ENDCHAR
STARTCHAR U+0015
ENCODING 21
SWIDTH 384 0
DWIDTH 8 0
BBX 8 15 0 -3
BITMAP
08
08
08
08
08
08
08
08
0F
08
08
08
08
08
08
ENDCHAR
STARTCHAR U+0016
ENCODING 22
SWIDTH 384 0
DWIDTH 8 0
BBX 8 15 0 -3
BITMAP
08
08
08
08
08
08
08
08
F8
08
08
08
08
08
08
ENDCHAR
STARTCHAR U+0017
ENCODING 23
SWIDTH 384 0
DWIDTH 8 0
BBX 8 15 0 -3
BITMAP
08
08
08
08
08
08
08
08
FF
00
00
00
00
00
00
ENDCHAR
STARTCHAR U+0018
ENCODING 24
SWIDTH 384 0
DWIDTH 8 0
BBX 8 15 0 -3
BITMAP
00
00
00
00
00
00
00
00
FF
08
08
08
08
08
08
ENDCHAR
STARTCHAR U+0019
ENCODING 25
SWIDTH 384 0
DWIDTH 8 0
BBX 8 15 0 -3
BITMAP
08
08
08
08
08
08
08
08
08
08
08
08
08
08
08
ENDCHAR
STARTCHAR U+001A
ENCODING 26
SWIDTH 384 0
DWIDTH 8 0
BBX 8 15 0 -3
BITMAP
00
00
00
00
00
00
00
00
00
00
00
00
00
00
00
ENDCHAR
STARTCHAR U+001B
ENCODING 27
SWIDTH 384 0
DWIDTH 8 0
BBX 8 15 0 -3
BITMAP
00
00
00
00
00
00
00
00
00
00
00
00
00
00
00
ENDCHAR
STARTCHAR U+001C
ENCODING 28
SWIDTH 384 0
DWIDTH 8 0
BBX 8 15 0 -3
BITMAP
00
00
00
00
00
00
00
00
00
00
00
00
00
00
00
ENDCHAR
STARTCHAR U+001D
ENCODING 29
SWIDTH 384 0
DWIDTH 8 0
BBX 8 15 0 -3
BITMAP
00
00
00
00
00
00
00
00
00
00
00
00
00
00
00
ENDCHAR
STARTCHAR U+001E
ENCODING 30
SWIDTH 384 0
DWIDTH 8 0
BBX 8 15 0 -3
BITMAP
00
00
00
00
3E
20
20
7C
20
20
20
7E
00
00
00
ENDCHAR
STARTCHAR U+001F
ENCODING 31
SWIDTH 384 0
DWIDTH 8 0
BBX 8 15 0 -3
BITMAP
00
00
00
00
00
00
00
00
00
00
00
00
00
00
00
ENDCHAR
STARTCHAR U+0020
ENCODING 32
SWIDTH 384 0
DWIDTH 8 0
BBX 8 15 0 -3
BITMAP
00
00
00
00
00
00
00
00
00
00
00
00
00
00
00
ENDCHAR
STARTCHAR U+0021
ENCODING 33
SWIDTH 384 0
DWIDTH 8 0
BBX 8 15 0 -3
BITMAP
00
00
00
10
10
10
10
10
00
00
10
10
00
00
00
ENDCHAR
STARTCHAR U+0022
ENCODING 34
SWIDTH 384 0
DWIDTH 8 0
BBX 8 15 0 -3
BITMAP
00
00
00
24
24
24
00
00
00
00
00
00
00
00
00
ENDCHAR
STARTCHAR U+0023
ENCODING 35
SWIDTH 384 0
DWIDTH 8 0
BBX 8 15 0 -3
BITMAP
00
00
00
00
24
24
7E
24
24
7E
24
24
00
00
00
ENDCHAR
STARTCHAR U+0024
ENCODING 36
SWIDTH 384 0
DWIDTH 8 0
BBX 8 15 0 -3
BITMAP
00
00
00
00
10
FE
90
FE
12
12
FE
10
00
00
00
ENDCHAR
STARTCHAR U+0025
ENCODING 37
SWIDTH 384 0
DWIDTH 8 0
BBX 8 15 0 -3
BITMAP
00
00
00
00
70
52
74
08
10
2E
4A
0E
00
00
00
ENDCHAR
STARTCHAR U+0026
ENCODING 38
SWIDTH 384 0
DWIDTH 8 0
BBX 8 15 0 -3
BITMAP
00
00
00
00
78
48
48
30
4E
44
46
7D
00
00
00
ENDCHAR
STARTCHAR U+0027
ENCODING 39
SWIDTH 384 0
DWIDTH 8 0
BBX 8 15 0 -3
BITMAP
00
00
00
10
10
10
00
00
00
00
00
00
00
00
00
ENDCHAR
STARTCHAR U+0028
ENCODING 40
SWIDTH 384 0
DWIDTH 8 0
BBX 8 15 0 -3
BITMAP
00
00
00
04
08
10
10
10
10
10
10
08
04
00
00
ENDCHAR
STARTCHAR U+0029
ENCODING 41
SWIDTH 384 0
DWIDTH 8 0
BBX 8 15 0 -3
BITMAP
00
00
00
20
10
08
08
08
08
08
08
10
20
00
00
ENDCHAR
STARTCHAR U+002A
ENCODING 42
SWIDTH 384 0
DWIDTH 8 0
BBX 8 15 0 -3
BITMAP
00
00
00
00
00
00
24
18
7E
18
24
00
00
00
00
ENDCHAR
STARTCHAR U+002B
ENCODING 43
SWIDTH 384 0
DWIDTH 8 0
BBX 8 15 0 -3
BITMAP
00
00
00
00
00
10
10
10
FE
10
10
10
00
00
00
ENDCHAR
STARTCHAR U+002C
ENCODING 44
SWIDTH 384 0
DWIDTH 8 0
BBX 8 15 0 -3
BITMAP
00
00
00
00
00
00
00
00
00
00
18
18
08
10
00
ENDCHAR
STARTCHAR U+002D
ENCODING 45
SWIDTH 384 0
DWIDTH 8 0
BBX 8 15 0 -3
BITMAP
00
00
00
00
00
00
00
00
7E
00
00
00
00
00
00
ENDCHAR
STARTCHAR U+002E
ENCODING 46
SWIDTH 384 0
DWIDTH 8 0
BBX 8 15 0 -3
BITMAP
00
00
00
00
00
00
00
00
00
00
18
18
00
00
00
ENDCHAR
STARTCHAR U+002F
ENCODING 47
SWIDTH 384 0
DWIDTH 8 0
BBX 8 15 0 -3
BITMAP
00
00
00
04
04
08
08
10
10
20
20
40
40
00
00
ENDCHAR
STARTCHAR U+0030
ENCODING 48
SWIDTH 384 0
DWIDTH 8 0
BBX 8 15 0 -3
BITMAP
00
00
00
00
7E
42
46
4A
52
62
42
7E
00
00
00
ENDCHAR
STARTCHAR U+0031
ENCODING 49
SWIDTH 384 0
DWIDTH 8 0
BBX 8 15 0 -3
BITMAP
00
00
00
00
08
18
28
08
08
08
08
08
00
00
00
ENDCHAR
STARTCHAR U+0032
ENCODING 50
SWIDTH 384 0
DWIDTH 8 0
BBX 8 15 0 -3
BITMAP
00
00
00
00
7E
02
02
7E
40
40
40
7E
00
00
00
ENDCHAR
STARTCHAR U+0033
ENCODING 51
SWIDTH 384 0
DWIDTH 8 0
BBX 8 15 0 -3
BITMAP
00
00
00
00
7E
02
02
7E
02
02
02
7E
00
00
00
ENDCHAR
STARTCHAR U+0034
ENCODING 52
SWIDTH 384 0
DWIDTH 8 0
BBX 8 15 0 -3
BITMAP
00
00
00
00
42
42
42
7E
02
02
02
02
00
00
00
ENDCHAR
STARTCHAR U+0035
ENCODING 53
SWIDTH 384 0
DWIDTH 8 0
BBX 8 15 0 -3
BITMAP
00
00
00
00
7E
40
40
7E
02
02
02
7E
00
00
00
ENDCHAR
STARTCHAR U+0036
ENCODING 54
SWIDTH 384 0
DWIDTH 8 0
BBX 8 15 0 -3
BITMAP
00
00
00
00
7E
40
40
7E
42
42
42
7E
00
00
00
ENDCHAR
STARTCHAR U+0037
ENCODING 55
SWIDTH 384 0
DWIDTH 8 0
BBX 8 15 0 -3
BITMAP
00
00
00
00
7E
02
02
02
02
02
02
02
00
00
00
ENDCHAR
STARTCHAR U+0038
ENCODING 56
SWIDTH 384 0
DWIDTH 8 0
BBX 8 15 0 -3
BITMAP
00
00
00
00
7E
42
42
3C
42
42
42
7E
00
00
00
ENDCHAR
STARTCHAR U+0039
ENCODING 57
SWIDTH 384 0
DWIDTH 8 0
BBX 8 15 0 -3
BITMAP
00
00
00
00
7E
42
42
7E
02
02
02
02
00
00
00
ENDCHAR
STARTCHAR U+003A
ENCODING 58
SWIDTH 384 0
DWIDTH 8 0
BBX 8 15 0 -3
BITMAP
00
00
00
00
00
00
18
18
00
00
18
18
00
00
00
ENDCHAR
STARTCHAR U+003B
ENCODING 59
SWIDTH 384 0
DWIDTH 8 0
BBX 8 15 0 -3
BITMAP
00
00
00
00
00
00
18
18
00
00
18
18
08
10
00
ENDCHAR
STARTCHAR U+003C
ENCODING 60
SWIDTH 384 0
DWIDTH 8 0
BBX 8 15 0 -3
BITMAP
00
00
00
00
00
04
08
10
20
10
08
04
00
00
00
ENDCHAR
STARTCHAR U+003D
ENCODING 61
SWIDTH 384 0
DWIDTH 8 0
BBX 8 15 0 -3
BITMAP
00
00
00
00
00
00
00
7E
00
7E
00
00
00
00
00
ENDCHAR
STARTCHAR U+003E
ENCODING 62
SWIDTH 384 0
DWIDTH 8 0
BBX 8 15 0 -3
BITMAP
00
00
00
00
00
20
10
08
04
08
10
20
00
00
00
ENDCHAR
STARTCHAR U+003F
ENCODING 63
SWIDTH 384 0
DWIDTH 8 0
BBX 8 15 0 -3
BITMAP
00
00
00
00
7E
02
02
1E
10
00
10
10
00
00
00
ENDCHAR
STARTCHAR U+0040
ENCODING 64
SWIDTH 384 0
DWIDTH 8 0
BBX 8 15 0 -3
BITMAP
00
00
00
00
7E
42
5E
52
52
52
5E
40
7E
00
00
ENDCHAR
STARTCHAR U+0041
ENCODING 65
SWIDTH 384 0
DWIDTH 8 0
BBX 8 15 0 -3
BITMAP
00
00
00
00
7E
42
42
7E
42
42
42
42
00
00
00
ENDCHAR
STARTCHAR U+0042
ENCODING 66
SWIDTH 384 0
DWIDTH 8 0
BBX 8 15 0 -3
BITMAP
00
00
00
00
7C
44
44
7E
42
42
42
7E
00
00
00
ENDCHAR
STARTCHAR U+0043
ENCODING 67
SWIDTH 384 0
DWIDTH 8 0
BBX 8 15 0 -3
BITMAP
00
00
00
00
7E
40
40
40
40
40
40
7E
00
00
00
ENDCHAR
STARTCHAR U+0044
ENCODING 68
SWIDTH 384 0
DWIDTH 8 0
BBX 8 15 0 -3
BITMAP
00
00
00
00
7C
42
42
42
42
42
42
7C
00
00
00
ENDCHAR
STARTCHAR U+0045
ENCODING 69
SWIDTH 384 0
DWIDTH 8 0
BBX 8 15 0 -3
BITMAP
00
00
00
00
7E
40
40
7E
40
40
40
7E
00
00
00
ENDCHAR
STARTCHAR U+0046
ENCODING 70
SWIDTH 384 0
DWIDTH 8 0
BBX 8 15 0 -3
BITMAP
00
00
00
00
7E
40
40
7E
40
40
40
40
00
00
00
ENDCHAR
STARTCHAR U+0047
ENCODING 71
SWIDTH 384 0
DWIDTH 8 0
BBX 8 15 0 -3
BITMAP
00
00
00
00
7E
40
40
5E
42
42
42
7E
00
00
00
ENDCHAR
STARTCHAR U+0048
ENCODING 72
SWIDTH 384 0
DWIDTH 8 0
BBX 8 15 0 -3
BITMAP
00
00
00
00
42
42
42
7E
42
42
42
42
00
00
00
ENDCHAR
STARTCHAR U+0049
ENCODING 73
SWIDTH 384 0
DWIDTH 8 0
BBX 8 15 0 -3
BITMAP
00
00
00
00
3E
08
08
08
08
08
08
3E
00
00
00
ENDCHAR
STARTCHAR U+004A
ENCODING 74
SWIDTH 384 0
DWIDTH 8 0
BBX 8 15 0 -3
BITMAP
00
00
00
00
02
02
02
02
02
02
02
7E
00
00
00
ENDCHAR
STARTCHAR U+004B
ENCODING 75
SWIDTH 384 0
DWIDTH 8 0
BBX 8 15 0 -3
BITMAP
00
00
00
00
42
44
48
50
70
48
44
42
00
00
00
ENDCHAR
STARTCHAR U+004C
ENCODING 76
SWIDTH 384 0
DWIDTH 8 0
BBX 8 15 0 -3
BITMAP
00
00
00
00
40
40
40
40
40
40
40
7E
00
00
00
ENDCHAR
STARTCHAR U+004D
ENCODING 77
SWIDTH 384 0
DWIDTH 8 0
BBX 8 15 0 -3
BITMAP
00
00
00
00
FE
92
92
92
92
92
92
92
00
00
00
ENDCHAR
STARTCHAR U+004E
ENCODING 78
SWIDTH 384 0
DWIDTH 8 0
BBX 8 15 0 -3
BITMAP
00
00
00
00
7E
42
42
42
42
42
42
42
00
00
00
ENDCHAR
STARTCHAR U+004F
ENCODING 79
SWIDTH 384 0
DWIDTH 8 0
BBX 8 15 0 -3
BITMAP
00
00
00
00
7E
42
42
42
42
42
42
7E
00
00
00
ENDCHAR
STARTCHAR U+0050
ENCODING 80
SWIDTH 384 0
DWIDTH 8 0
BBX 8 15 0 -3
BITMAP
00
00
00
00
7E
42
42
7E
40
40
40
40
00
00
00
ENDCHAR
STARTCHAR U+0051
ENCODING 81
SWIDTH 384 0
DWIDTH 8 0
BBX 8 15 0 -3
BITMAP
00
00
00
00
7E
42
42
42
42
42
42
7E
03
00
00
ENDCHAR
STARTCHAR U+0052
ENCODING 82
SWIDTH 384 0
DWIDTH 8 0
BBX 8 15 0 -3
BITMAP
00
00
00
00
7E
42
42
7E
50
48
44
42
00
00
00
ENDCHAR
STARTCHAR U+0053
ENCODING 83
SWIDTH 384 0
DWIDTH 8 0
BBX 8 15 0 -3
BITMAP
00
00
00
00
7E
40
40
7E
02
02
02
7E
00
00
00
ENDCHAR
STARTCHAR U+0054
ENCODING 84
SWIDTH 384 0
DWIDTH 8 0
BBX 8 15 0 -3
BITMAP
00
00
00
00
FE
10
10
10
10
10
10
10
00
00
00
ENDCHAR
STARTCHAR U+0055
ENCODING 85
SWIDTH 384 0
DWIDTH 8 0
BBX 8 15 0 -3
BITMAP
00
00
00
00
42
42
42
42
42
42
42
7E
00
00
00
ENDCHAR
STARTCHAR U+0056
ENCODING 86
SWIDTH 384 0
DWIDTH 8 0
BBX 8 15 0 -3
BITMAP
00
00
00
00
42
42
42
42
42
42
24
18
00
00
00
ENDCHAR
STARTCHAR U+0057
ENCODING 87
SWIDTH 384 0
DWIDTH 8 0
BBX 8 15 0 -3
BITMAP
00
00
00
00
92
92
92
92
92
92
92
FE
00
00
00
ENDCHAR
STARTCHAR U+0058
ENCODING 88
SWIDTH 384 0
DWIDTH 8 0
BBX 8 15 0 -3
BITMAP
00
00
00
00
42
42
24
18
18
24
42
42
00
00
00
ENDCHAR
STARTCHAR U+0059
ENCODING 89
SWIDTH 384 0
DWIDTH 8 0
BBX 8 15 0 -3
BITMAP
00
00
00
00
82
82
82
FE
10
10
10
10
00
00
00
ENDCHAR
STARTCHAR U+005A
ENCODING 90
SWIDTH 384 0
DWIDTH 8 0
BBX 8 15 0 -3
BITMAP
00
00
00
00
7E
02
04
08
10
20
40
7E
00
00
00
ENDCHAR
STARTCHAR U+005B
ENCODING 91
SWIDTH 384 0
DWIDTH 8 0
BBX 8 15 0 -3
BITMAP
00
00
00
3C
20
20
20
20
20
20
20
20
3C
00
00
ENDCHAR
STARTCHAR U+005C
ENCODING 92
SWIDTH 384 0
DWIDTH 8 0
BBX 8 15 0 -3
BITMAP
00
00
00
40
40
20
20
10
10
08
08
04
04
00
00
ENDCHAR
STARTCHAR U+005D
ENCODING 93
SWIDTH 384 0
DWIDTH 8 0
BBX 8 15 0 -3
BITMAP
00
00
00
3C
04
04
04
04
04
04
04
04
3C
00
00
ENDCHAR
STARTCHAR U+005E
ENCODING 94
SWIDTH 384 0
DWIDTH 8 0
BBX 8 15 0 -3
BITMAP
00
00
00
10
28
44
00
00
00
00
00
00
00
00
00
ENDCHAR
STARTCHAR U+005F
ENCODING 95
SWIDTH 384 0
DWIDTH 8 0
BBX 8 15 0 -3
BITMAP
00
00
00
00
00
00
00
00
00
00
00
00
7E
00
00
ENDCHAR
STARTCHAR U+0060
ENCODING 96
SWIDTH 384 0
DWIDTH 8 0
BBX 8 15 0 -3
BITMAP
00
00
00
20
10
08
00
00
00
00
00
00
00
00
00
ENDCHAR
STARTCHAR U+0061
ENCODING 97
SWIDTH 384 0
DWIDTH 8 0
BBX 8 15 0 -3
BITMAP
00
00
00
00
00
00
7E
02
7E
42
42
7E
00
00
00
ENDCHAR
STARTCHAR U+0062
ENCODING 98
SWIDTH 384 0
DWIDTH 8 0
BBX 8 15 0 -3
BITMAP
00
00
00
00
40
40
7E
42
42
42
42
7E
00
00
00
ENDCHAR
STARTCHAR U+0063
ENCODING 99
SWIDTH 384 0
DWIDTH 8 0
BBX 8 15 0 -3
BITMAP
00
00
00
00
00
00
7E
40
40
40
40
7E
00
00
00
ENDCHAR
STARTCHAR U+0064
ENCODING 100
SWIDTH 384 0
DWIDTH 8 0
BBX 8 15 0 -3
BITMAP
00
00
00
00
02
02
7E
42
42
42
42
7E
00
00
00
ENDCHAR
STARTCHAR U+0065
ENCODING 101
SWIDTH 384 0
DWIDTH 8 0
BBX 8 15 0 -3
BITMAP
00
00
00
00
00
00
7E
42
7E
40
40
7E
00
00
00
ENDCHAR
STARTCHAR U+0066
ENCODING 102
SWIDTH 384 0
DWIDTH 8 0
BBX 8 15 0 -3
BITMAP
00
00
00
00
3E
20
7C
20
20
20
20
20
00
00
00
ENDCHAR
STARTCHAR U+0067
ENCODING 103
SWIDTH 384 0
DWIDTH 8 0
BBX 8 15 0 -3
BITMAP
00
00
00
00
00
00
7E
42
42
42
42
7E
02
7E
00
ENDCHAR
STARTCHAR U+0068
ENCODING 104
SWIDTH 384 0
DWIDTH 8 0
BBX 8 15 0 -3
BITMAP
00
00
00
00
40
40
7E
42
42
42
42
42
00
00
00
ENDCHAR
STARTCHAR U+0069
ENCODING 105
SWIDTH 384 0
DWIDTH 8 0
BBX 8 15 0 -3
BITMAP
00
00
00
10
10
00
70
10
10
10
10
1E
00
00
00
ENDCHAR
STARTCHAR U+006A
ENCODING 106
SWIDTH 384 0
DWIDTH 8 0
BBX 8 15 0 -3
BITMAP
00
00
00
04
04
00
04
04
04
04
04
04
04
7C
00
ENDCHAR
STARTCHAR U+006B
ENCODING 107
SWIDTH 384 0
DWIDTH 8 0
BBX 8 15 0 -3
BITMAP
00
00
00
00
40
40
44
48
50
68
44
42
00
00
00
ENDCHAR
STARTCHAR U+006C
ENCODING 108
SWIDTH 384 0
DWIDTH 8 0
BBX 8 15 0 -3
BITMAP
00
00
00
00
70
10
10
10
10
10
10
1E
00
00
00
ENDCHAR
STARTCHAR U+006D
ENCODING 109
SWIDTH 384 0
DWIDTH 8 0
BBX 8 15 0 -3
BITMAP
00
00
00
00
00
00
FE
92
92
92
92
92
00
00
00
ENDCHAR
STARTCHAR U+006E
ENCODING 110
SWIDTH 384 0
DWIDTH 8 0
BBX 8 15 0 -3
BITMAP
00
00
00
00
00
00
7E
42
42
42
42
42
00
00
00
ENDCHAR
STARTCHAR U+006F
ENCODING 111
SWIDTH 384 0
DWIDTH 8 0
BBX 8 15 0 -3
BITMAP
00
00
00
00
00
00
7E
42
42
42
42
7E
00
00
00
ENDCHAR
STARTCHAR U+0070
ENCODING 112
SWIDTH 384 0
DWIDTH 8 0
BBX 8 15 0 -3
BITMAP
00
00
00
00
00
00
7E
42
42
42
42
7E
40
40
00
ENDCHAR
STARTCHAR U+0071
ENCODING 113
SWIDTH 384 0
DWIDTH 8 0
BBX 8 15 0 -3
BITMAP
00
00
00
00
00
00
7E
42
42
42
42
7E
02
02
00
ENDCHAR
STARTCHAR U+0072
ENCODING 114
SWIDTH 384 0
DWIDTH 8 0
BBX 8 15 0 -3
BITMAP
00
00
00
00
00
00
7E
40
40
40
40
40
00
00
00
ENDCHAR
STARTCHAR U+0073
ENCODING 115
SWIDTH 384 0
DWIDTH 8 0
BBX 8 15 0 -3
BITMAP
00
00
00
00
00
00
7E
40
7E
02
02
7E
00
00
00
ENDCHAR
STARTCHAR U+0074
ENCODING 116
SWIDTH 384 0
DWIDTH 8 0
BBX 8 15 0 -3
BITMAP
00
00
00
00
20
20
7C
20
20
20
20
3E
00
00
00
ENDCHAR
STARTCHAR U+0075
ENCODING 117
SWIDTH 384 0
DWIDTH 8 0
BBX 8 15 0 -3
BITMAP
00
00
00
00
00
00
42
42
42
42
42
7E
00
00
00
ENDCHAR
STARTCHAR U+0076
ENCODING 118
SWIDTH 384 0
DWIDTH 8 0
BBX 8 15 0 -3
BITMAP
00
00
00
00
00
00
42
42
42
42
24
18
00
00
00
ENDCHAR
STARTCHAR U+0077
ENCODING 119
SWIDTH 384 0
DWIDTH 8 0
BBX 8 15 0 -3
BITMAP
00
00
00
00
00
00
92
92
92
92
92
FE
00
00
00
ENDCHAR
STARTCHAR U+0078
ENCODING 120
SWIDTH 384 0
DWIDTH 8 0
BBX 8 15 0 -3
BITMAP
00
00
00
00
00
00
42
24
18
18
24
42
00
00
00
ENDCHAR
STARTCHAR U+0079
ENCODING 121
SWIDTH 384 0
DWIDTH 8 0
BBX 8 15 0 -3
BITMAP
00
00
00
00
00
00
42
42
42
42
42
7E
02
7E
00
ENDCHAR
STARTCHAR U+007A
ENCODING 122
SWIDTH 384 0
DWIDTH 8 0
BBX 8 15 0 -3
BITMAP
00
00
00
00
00
00
7E
04
08
10
20
7E
00
00
00
ENDCHAR
STARTCHAR U+007B
ENCODING 123
SWIDTH 384 0
DWIDTH 8 0
BBX 8 15 0 -3
BITMAP
00
00
00
3C
20
20
20
40
20
20
20
20
3C
00
00
ENDCHAR
STARTCHAR U+007C
ENCODING 124
SWIDTH 384 0
DWIDTH 8 0
BBX 8 15 0 -3
BITMAP
00
00
00
10
10
10
10
10
10
10
10
10
10
00
00
ENDCHAR
STARTCHAR U+007D
ENCODING 125
SWIDTH 384 0
DWIDTH 8 0
BBX 8 15 0 -3
BITMAP
00
00
00
3C
04
04
04
02
04
04
04
04
3C
00
00
ENDCHAR
STARTCHAR U+007E
ENCODING 126
SWIDTH 384 0
DWIDTH 8 0
BBX 8 15 0 -3
BITMAP
00
00
00
7A
4A
4E
00
00
00
00
00
00
00
00
00
ENDCHAR
STARTCHAR U+00A0
ENCODING 160
SWIDTH 384 0
DWIDTH 8 0
BBX 8 15 0 -3
BITMAP
00
00
00
00
00
00
00
00
00
00
00
00
00
00
00
ENDCHAR
STARTCHAR U+00A1
ENCODING 161
SWIDTH 384 0
DWIDTH 8 0
BBX 8 15 0 -3
BITMAP
00
00
00
10
10
00
00
10
10
10
10
10
00
00
00
ENDCHAR
STARTCHAR U+00A2
ENCODING 162
SWIDTH 384 0
DWIDTH 8 0
BBX 8 15 0 -3
BITMAP
00
00
00
00
00
08
7E
48
48
48
48
7E
08
00
00
ENDCHAR
STARTCHAR U+00A3
ENCODING 163
SWIDTH 384 0
DWIDTH 8 0
BBX 8 15 0 -3
BITMAP
00
00
00
00
3E
20
20
7C
20
20
20
7E
00
00
00
ENDCHAR
STARTCHAR U+00A4
ENCODING 164
SWIDTH 384 0
DWIDTH 8 0
BBX 8 15 0 -3
BITMAP
00
00
00
00
00
00
42
3C
24
24
3C
42
00
00
00
ENDCHAR
STARTCHAR U+00A5
ENCODING 165
SWIDTH 384 0
DWIDTH 8 0
BBX 8 15 0 -3
BITMAP
00
00
00
00
82
44
28
10
7C
10
7C
10
00
00
00
ENDCHAR
STARTCHAR U+00A6
ENCODING 166
SWIDTH 384 0
DWIDTH 8 0
BBX 8 15 0 -3
BITMAP
00
00
00
00
10
10
10
00
00
10
10
10
00
00
00
ENDCHAR
STARTCHAR U+00A7
ENCODING 167
SWIDTH 384 0
DWIDTH 8 0
BBX 8 15 0 -3
BITMAP
00
00
00
00
7E
40
7E
42
42
7E
02
7E
00
00
00
ENDCHAR
STARTCHAR U+00A8
ENCODING 168
SWIDTH 384 0
DWIDTH 8 0
BBX 8 15 0 -3
BITMAP
00
24
24
00
00
00
00
00
00
00
00
00
00
00
00
ENDCHAR
STARTCHAR U+00A9
ENCODING 169
SWIDTH 384 0
DWIDTH 8 0
BBX 8 15 0 -3
BITMAP
00
00
00
00
FE
82
BA
A2
A2
BA
82
FE
00
00
00
ENDCHAR
STARTCHAR U+00AA
ENCODING 170
SWIDTH 384 0
DWIDTH 8 0
BBX 8 15 0 -3
BITMAP
00
00
00
7C
04
7C
44
7C
00
7C
00
00
00
00
00
ENDCHAR
STARTCHAR U+00AB
ENCODING 171
SWIDTH 384 0
DWIDTH 8 0
BBX 8 15 0 -3
BITMAP
00
00
00
00
00
0A
14
28
50
28
14
0A
00
00
00
ENDCHAR
STARTCHAR U+00AC
ENCODING 172
SWIDTH 384 0
DWIDTH 8 0
BBX 8 15 0 -3
BITMAP
00
00
00
00
00
00
00
7E
02
02
02
00
00
00
00
ENDCHAR
STARTCHAR U+00AD
ENCODING 173
SWIDTH 384 0
DWIDTH 8 0
BBX 8 15 0 -3
BITMAP
00
00
00
00
00
00
00
00
3C
00
00
00
00
00
00
ENDCHAR
STARTCHAR U+00AE
ENCODING 174
SWIDTH 384 0
DWIDTH 8 0
BBX 8 15 0 -3
BITMAP
00
00
00
00
00
FE
2A
2A
2A
2A
00
00
00
00
00
ENDCHAR
STARTCHAR U+00AF
ENCODING 175
SWIDTH 384 0
DWIDTH 8 0
BBX 8 15 0 -3
BITMAP
00
00
3C
00
00
00
00
00
00
00
00
00
00
00
00
ENDCHAR
STARTCHAR U+00B0
ENCODING 176
SWIDTH 384 0
DWIDTH 8 0
BBX 8 15 0 -3
BITMAP
00
00
00
00
70
50
70
00
00
00
00
00
00
00
00
ENDCHAR
STARTCHAR U+00B1
ENCODING 177
SWIDTH 384 0
DWIDTH 8 0
BBX 8 15 0 -3
BITMAP
00
00
00
10
10
10
FE
10
10
10
00
FE
00
00
00
ENDCHAR
STARTCHAR U+00B2
ENCODING 178
SWIDTH 384 0
DWIDTH 8 0
BBX 8 15 0 -3
BITMAP
00
00
00
78
08
78
40
78
00
00
00
00
00
00
00
ENDCHAR
STARTCHAR U+00B3
ENCODING 179
SWIDTH 384 0
DWIDTH 8 0
BBX 8 15 0 -3
BITMAP
00
00
00
78
08
78
08
78
00
00
00
00
00
00
00
ENDCHAR
STARTCHAR U+00B4
ENCODING 180
SWIDTH 384 0
DWIDTH 8 0
BBX 8 15 0 -3
BITMAP
00
04
08
00
00
00
00
00
00
00
00
00
00
00
00
ENDCHAR
STARTCHAR U+00B5
ENCODING 181
SWIDTH 384 0
DWIDTH 8 0
BBX 8 15 0 -3
BITMAP
00
00
00
00
00
00
42
42
42
42
42
7E
40
40
00
ENDCHAR
STARTCHAR U+00B6
ENCODING 182
SWIDTH 384 0
DWIDTH 8 0
BBX 8 15 0 -3
BITMAP
00
00
00
00
7E
4A
4A
7A
0A
0A
0A
0A
00
00
00
ENDCHAR
STARTCHAR U+00B7
ENCODING 183
SWIDTH 384 0
DWIDTH 8 0
BBX 8 15 0 -3
BITMAP
00
00
00
00
00
00
00
18
18
00
00
00
00
00
00
ENDCHAR
STARTCHAR U+00B8
ENCODING 184
SWIDTH 384 0
DWIDTH 8 0
BBX 8 15 0 -3
BITMAP
00
00
00
00
00
00
00
00
00
00
00
10
10
20
00
ENDCHAR
STARTCHAR U+00B9
ENCODING 185
SWIDTH 384 0
DWIDTH 8 0
BBX 8 15 0 -3
BITMAP
00
00
00
20
60
20
20
20
00
00
00
00
00
00
00
ENDCHAR
STARTCHAR U+00BA
ENCODING 186
SWIDTH 384 0
DWIDTH 8 0
BBX 8 15 0 -3
BITMAP
00
00
00
7C
44
44
44
7C
00
7C
00
00
00
00
00
ENDCHAR
STARTCHAR U+00BB
ENCODING 187
SWIDTH 384 0
DWIDTH 8 0
BBX 8 15 0 -3
BITMAP
00
00
00
00
00
50
28
14
0A
14
28
50
00
00
00
ENDCHAR
STARTCHAR U+00BC
ENCODING 188
SWIDTH 384 0
DWIDTH 8 0
BBX 8 15 0 -3
BITMAP
00
20
60
22
24
28
10
2A
4A
0E
02
02
00
00
00
ENDCHAR
STARTCHAR U+00BD
ENCODING 189
SWIDTH 384 0
DWIDTH 8 0
BBX 8 15 0 -3
BITMAP
00
20
60
22
24
28
10
2E
42
0E
08
0E
00
00
00
ENDCHAR
STARTCHAR U+00BE
ENCODING 190
SWIDTH 384 0
DWIDTH 8 0
BBX 8 15 0 -3
BITMAP
00
E0
20
E2
24
E8
10
2A
4A
8E
02
02
00
00
00
ENDCHAR
STARTCHAR U+00BF
ENCODING 191
SWIDTH 384 0
DWIDTH 8 0
BBX 8 15 0 -3
BITMAP
00
00
00
00
10
10
00
10
1E
02
02
7E
00
00
00
ENDCHAR
STARTCHAR U+00C0
ENCODING 192
SWIDTH 384 0
DWIDTH 8 0
BBX 8 15 0 -3
BITMAP
00
20
10
00
7E
42
42
7E
42
42
42
42
00
00
00
ENDCHAR
STARTCHAR U+00C1
ENCODING 193
SWIDTH 384 0
DWIDTH 8 0
BBX 8 15 0 -3
BITMAP
00
04
08
00
7E
42
42
7E
42
42
42
42
00
00
00
ENDCHAR
STARTCHAR U+00C2
ENCODING 194
SWIDTH 384 0
DWIDTH 8 0
BBX 8 15 0 -3
BITMAP
00
18
24
00
7E
42
42
7E
42
42
42
42
00
00
00
ENDCHAR
STARTCHAR U+00C3
ENCODING 195
SWIDTH 384 0
DWIDTH 8 0
BBX 8 15 0 -3
BITMAP
00
14
28
00
7E
42
42
7E
42
42
42
42
00
00
00
ENDCHAR
STARTCHAR U+00C4
ENCODING 196
SWIDTH 384 0
DWIDTH 8 0
BBX 8 15 0 -3
BITMAP
00
24
24
00
7E
42
42
7E
42
42
42
42
00
00
00
ENDCHAR
STARTCHAR U+00C5
ENCODING 197
SWIDTH 384 0
DWIDTH 8 0
BBX 8 15 0 -3
BITMAP
00
18
24
18
7E
42
42
7E
42
42
42
42
00
00
00
ENDCHAR
STARTCHAR U+00C6
ENCODING 198
SWIDTH 384 0
DWIDTH 8 0
BBX 8 15 0 -3
BITMAP
00
00
00
00
7E
48
48
7E
48
48
48
4E
00
00
00
ENDCHAR
STARTCHAR U+00C7
ENCODING 199
SWIDTH 384 0
DWIDTH 8 0
BBX 8 15 0 -3
BITMAP
00
00
00
00
7E
40
40
40
40
40
40
7E
10
20
00
ENDCHAR
STARTCHAR U+00C8
ENCODING 200
SWIDTH 384 0
DWIDTH 8 0
BBX 8 15 0 -3
BITMAP
00
20
10
00
7E
40
40
7E
40
40
40
7E
00
00
00
ENDCHAR
STARTCHAR U+00C9
ENCODING 201
SWIDTH 384 0
DWIDTH 8 0
BBX 8 15 0 -3
BITMAP
00
04
08
00
7E
40
40
7E
40
40
40
7E
00
00
00
ENDCHAR
STARTCHAR U+00CA
ENCODING 202
SWIDTH 384 0
DWIDTH 8 0
BBX 8 15 0 -3
BITMAP
00
18
24
00
7E
40
40
7E
40
40
40
7E
00
00
00
ENDCHAR
STARTCHAR U+00CB
ENCODING 203
SWIDTH 384 0
DWIDTH 8 0
BBX 8 15 0 -3
BITMAP
00
24
24
00
7E
40
40
7E
40
40
40
7E
00
00
00
ENDCHAR
STARTCHAR U+00CC
ENCODING 204
SWIDTH 384 0
DWIDTH 8 0
BBX 8 15 0 -3
BITMAP
00
10
08
00
3E
08
08
08
08
08
08
3E
00
00
00
ENDCHAR
STARTCHAR U+00CD
ENCODING 205
SWIDTH 384 0
DWIDTH 8 0
BBX 8 15 0 -3
BITMAP
00
04
08
00
3E
08
08
08
08
08
08
3E
00
00
00
ENDCHAR
STARTCHAR U+00CE
ENCODING 206
SWIDTH 384 0
DWIDTH 8 0
BBX 8 15 0 -3
BITMAP
00
08
14
00
3E
08
08
08
08
08
08
3E
00
00
00
ENDCHAR
STARTCHAR U+00CF
ENCODING 207
SWIDTH 384 0
DWIDTH 8 0
BBX 8 15 0 -3
BITMAP
00
14
14
00
3E
08
08
08
08
08
08
3E
00
00
00
ENDCHAR
STARTCHAR U+00D0
ENCODING 208
SWIDTH 384 0
DWIDTH 8 0
BBX 8 15 0 -3
BITMAP
00
00
00
00
7C
42
42
F2
42
42
42
7C
00
00
00
ENDCHAR
STARTCHAR U+00D1
ENCODING 209
SWIDTH 384 0
DWIDTH 8 0
BBX 8 15 0 -3
BITMAP
00
14
28
00
7E
42
42
42
42
42
42
42
00
00
00
ENDCHAR
STARTCHAR U+00D2
ENCODING 210
SWIDTH 384 0
DWIDTH 8 0
BBX 8 15 0 -3
BITMAP
00
20
10
00
7E
42
42
42
42
42
42
7E
00
00
00
ENDCHAR
STARTCHAR U+00D3
ENCODING 211
SWIDTH 384 0
DWIDTH 8 0
BBX 8 15 0 -3
BITMAP
00
04
08
00
7E
42
42
42
42
42
42
7E
00
00
00
ENDCHAR
STARTCHAR U+00D4
ENCODING 212
SWIDTH 384 0
DWIDTH 8 0
BBX 8 15 0 -3
BITMAP
00
18
24
00
7E
42
42
42
42
42
42
7E
00
00
00
ENDCHAR
STARTCHAR U+00D5
ENCODING 213
SWIDTH 384 0
DWIDTH 8 0
BBX 8 15 0 -3
BITMAP
00
14
28
00
7E
42
42
42
42
42
42
7E
00
00
00
ENDCHAR
STARTCHAR U+00D6
ENCODING 214
SWIDTH 384 0
DWIDTH 8 0
BBX 8 15 0 -3
BITMAP
00
24
24
00
7E
42
42
42
42
42
42
7E
00
00
00
ENDCHAR
STARTCHAR U+00D7
ENCODING 215
SWIDTH 384 0
DWIDTH 8 0
BBX 8 15 0 -3
BITMAP
00
00
00
00
00
42
24
18
18
24
42
00
00
00
00
ENDCHAR
STARTCHAR U+00D8
ENCODING 216
SWIDTH 384 0
DWIDTH 8 0
BBX 8 15 0 -3
BITMAP
00
00
00
00
7F
42
46
4A
52
62
42
FE
00
00
00
ENDCHAR
STARTCHAR U+00D9
ENCODING 217
SWIDTH 384 0
DWIDTH 8 0
BBX 8 15 0 -3
BITMAP
00
20
10
00
42
42
42
42
42
42
42
7E
00
00
00
ENDCHAR
STARTCHAR U+00DA
ENCODING 218
SWIDTH 384 0
DWIDTH 8 0
BBX 8 15 0 -3
BITMAP
00
04
08
00
42
42
42
42
42
42
42
7E
00
00
00
ENDCHAR
STARTCHAR U+00DB
ENCODING 219
SWIDTH 384 0
DWIDTH 8 0
BBX 8 15 0 -3
BITMAP
00
18
24
00
42
42
42
42
42
42
42
7E
00
00
00
ENDCHAR
STARTCHAR U+00DC
ENCODING 220
SWIDTH 384 0
DWIDTH 8 0
BBX 8 15 0 -3
BITMAP
00
24
24
00
42
42
42
42
42
42
42
7E
00
00
00
ENDCHAR
STARTCHAR U+00DD
ENCODING 221
SWIDTH 384 0
DWIDTH 8 0
BBX 8 15 0 -3
BITMAP
00
08
10
00
82
82
82
FE
10
10
10
10
00
00
00
ENDCHAR
STARTCHAR U+00DE
ENCODING 222
SWIDTH 384 0
DWIDTH 8 0
BBX 8 15 0 -3
BITMAP
00
00
00
00
40
7E
42
42
42
7E
40
40
00
00
00
ENDCHAR
STARTCHAR U+00DF
ENCODING 223
SWIDTH 384 0
DWIDTH 8 0
BBX 8 15 0 -3
BITMAP
00
00
00
00
7C
44
7E
42
42
42
62
5E
00
00
00
ENDCHAR
STARTCHAR U+00E0
ENCODING 224
SWIDTH 384 0
DWIDTH 8 0
BBX 8 15 0 -3
BITMAP
00
00
00
20
10
00
7E
02
7E
42
42
7E
00
00
00
ENDCHAR
STARTCHAR U+00E1
ENCODING 225
SWIDTH 384 0
DWIDTH 8 0
BBX 8 15 0 -3
BITMAP
00
00
00
04
08
00
7E
02
7E
42
42
7E
00
00
00
ENDCHAR
STARTCHAR U+00E2
ENCODING 226
SWIDTH 384 0
DWIDTH 8 0
BBX 8 15 0 -3
BITMAP
00
00
00
18
24
00
7E
02
7E
42
42
7E
00
00
00
ENDCHAR
STARTCHAR U+00E3
ENCODING 227
SWIDTH 384 0
DWIDTH 8 0
BBX 8 15 0 -3
BITMAP
00
00
00
14
28
00
7E
02
7E
42
42
7E
00
00
00
ENDCHAR
STARTCHAR U+00E4
ENCODING 228
SWIDTH 384 0
DWIDTH 8 0
BBX 8 15 0 -3
BITMAP
00
00
00
24
24
00
7E
02
7E
42
42
7E
00
00
00
ENDCHAR
STARTCHAR U+00E5
ENCODING 229
SWIDTH 384 0
DWIDTH 8 0
BBX 8 15 0 -3
BITMAP
00
00
18
24
18
00
7E
02
7E
42
42
7E
00
00
00
ENDCHAR
STARTCHAR U+00E6
ENCODING 230
SWIDTH 384 0
DWIDTH 8 0
BBX 8 15 0 -3
BITMAP
00
00
00
00
00
00
FE
12
FE
90
90
FE
00
00
00
ENDCHAR
STARTCHAR U+00E7
ENCODING 231
SWIDTH 384 0
DWIDTH 8 0
BBX 8 15 0 -3
BITMAP
00
00
00
00
00
00
7E
40
40
40
40
7E
10
20
00
ENDCHAR
STARTCHAR U+00E8
ENCODING 232
SWIDTH 384 0
DWIDTH 8 0
BBX 8 15 0 -3
BITMAP
00
00
00
20
10
00
7E
42
7E
40
40
7E
00
00
00
ENDCHAR
STARTCHAR U+00E9
ENCODING 233
SWIDTH 384 0
DWIDTH 8 0
BBX 8 15 0 -3
BITMAP
00
00
00
04
08
00
7E
42
7E
40
40
7E
00
00
00
ENDCHAR
STARTCHAR U+00EA
ENCODING 234
SWIDTH 384 0
DWIDTH 8 0
BBX 8 15 0 -3
BITMAP
00
00
00
18
24
00
7E
42
7E
40
40
7E
00
00
00
ENDCHAR
STARTCHAR U+00EB
ENCODING 235
SWIDTH 384 0
DWIDTH 8 0
BBX 8 15 0 -3
BITMAP
00
00
00
24
24
00
7E
42
7E
40
40
7E
00
00
00
ENDCHAR
STARTCHAR U+00EC
ENCODING 236
SWIDTH 384 0
DWIDTH 8 0
BBX 8 15 0 -3
BITMAP
00
00
00
20
10
00
70
10
10
10
10
1E
00
00
00
ENDCHAR
STARTCHAR U+00ED
ENCODING 237
SWIDTH 384 0
DWIDTH 8 0
BBX 8 15 0 -3
BITMAP
00
00
00
08
10
00
70
10
10
10
10
1E
00
00
00
ENDCHAR
STARTCHAR U+00EE
ENCODING 238
SWIDTH 384 0
DWIDTH 8 0
BBX 8 15 0 -3
BITMAP
00
00
00
10
28
00
70
10
10
10
10
1E
00
00
00
ENDCHAR
STARTCHAR U+00EF
ENCODING 239
SWIDTH 384 0
DWIDTH 8 0
BBX 8 15 0 -3
BITMAP
00
00
00
28
28
00
70
10
10
10
10
1E
00
00
00
ENDCHAR
STARTCHAR U+00F0
ENCODING 240
SWIDTH 384 0
DWIDTH 8 0
BBX 8 15 0 -3
BITMAP
00
00
50
20
50
00
7E
42
42
42
42
7E
00
00
00
ENDCHAR
STARTCHAR U+00F1
ENCODING 241
SWIDTH 384 0
DWIDTH 8 0
BBX 8 15 0 -3
BITMAP
00
00
00
14
28
00
7E
42
42
42
42
42
00
00
00
ENDCHAR
STARTCHAR U+00F2
ENCODING 242
SWIDTH 384 0
DWIDTH 8 0
BBX 8 15 0 -3
BITMAP
00
00
00
20
10
00
7E
42
42
42
42
7E
00
00
00
ENDCHAR
STARTCHAR U+00F3
ENCODING 243
SWIDTH 384 0
DWIDTH 8 0
BBX 8 15 0 -3
BITMAP
00
00
00
04
08
00
7E
42
42
42
42
7E
00
00
00
ENDCHAR
STARTCHAR U+00F4
ENCODING 244
SWIDTH 384 0
DWIDTH 8 0
BBX 8 15 0 -3
BITMAP
00
00
00
18
24
00
7E
42
42
42
42
7E
00
00
00
ENDCHAR
STARTCHAR U+00F5
ENCODING 245
SWIDTH 384 0
DWIDTH 8 0
BBX 8 15 0 -3
BITMAP
00
00
00
14
28
00
7E
42
42
42
42
7E
00
00
00
ENDCHAR
STARTCHAR U+00F6
ENCODING 246
SWIDTH 384 0
DWIDTH 8 0
BBX 8 15 0 -3
BITMAP
00
00
00
24
24
00
7E
42
42
42
42
7E
00
00
00
ENDCHAR
STARTCHAR U+00F7
ENCODING 247
SWIDTH 384 0
DWIDTH 8 0
BBX 8 15 0 -3
BITMAP
00
00
00
00
00
10
10
00
FE
00
10
10
00
00
00
ENDCHAR
STARTCHAR U+00F8
ENCODING 248
SWIDTH 384 0
DWIDTH 8 0
BBX 8 15 0 -3
BITMAP
00
00
00
00
00
00
7F
46
4A
52
62
FE
00
00
00
ENDCHAR
STARTCHAR U+00F9
ENCODING 249
SWIDTH 384 0
DWIDTH 8 0
BBX 8 15 0 -3
BITMAP
00
00
00
20
10
00
42
42
42
42
42
7E
00
00
00
ENDCHAR
STARTCHAR U+00FA
ENCODING 250
SWIDTH 384 0
DWIDTH 8 0
BBX 8 15 0 -3
BITMAP
00
00
00
04
08
00
42
42
42
42
42
7E
00
00
00
ENDCHAR
STARTCHAR U+00FB
ENCODING 251
SWIDTH 384 0
DWIDTH 8 0
BBX 8 15 0 -3
BITMAP
00
00
00
18
24
00
42
42
42
42
42
7E
00
00
00
ENDCHAR
STARTCHAR U+00FC
ENCODING 252
SWIDTH 384 0
DWIDTH 8 0
BBX 8 15 0 -3
BITMAP
00
00
00
24
24
00
42
42
42
42
42
7E
00
00
00
ENDCHAR
STARTCHAR U+00FD
ENCODING 253
SWIDTH 384 0
DWIDTH 8 0
BBX 8 15 0 -3
BITMAP
00
00
00
04
08
00
42
42
42
42
42
7E
02
7E
00
ENDCHAR
STARTCHAR U+00FE
ENCODING 254
SWIDTH 384 0
DWIDTH 8 0
BBX 8 15 0 -3
BITMAP
00
00
00
00
40
40
7E
42
42
42
42
7E
40
40
00
ENDCHAR
STARTCHAR U+00FF
ENCODING 255
SWIDTH 384 0
DWIDTH 8 0
BBX 8 15 0 -3
BITMAP
00
00
00
24
24
00
42
42
42
42
42
7E
02
7E
00
ENDCHAR
ENDFONT
